<?xml version="1.0" encoding="utf-8"?>
<!-- Generator: Adobe Illustrator 15.0.0, SVG Export Plug-In . SVG Version: 6.00 Build 0)  -->
<!DOCTYPE svg PUBLIC "-//W3C//DTD SVG 1.1//EN" "http://www.w3.org/Graphics/SVG/1.1/DTD/svg11.dtd">
<svg version="1.1" id="Layer_2" xmlns="http://www.w3.org/2000/svg" xmlns:xlink="http://www.w3.org/1999/xlink" x="0px" y="0px"
	 width="99.125px" height="48.5px" viewBox="0 0 99.125 48.5" enable-background="new 0 0 99.125 48.5" xml:space="preserve">
<g>
	<polygon fill="#FFFFFF" points="58.167,25.328 55.532,25.328 55.532,11.339 58.167,11.339 58.167,7.796 45.904,7.796 
		45.904,11.339 48.538,11.339 48.538,25.328 52.081,28.779 58.167,28.779 	"/>
	<polygon fill="#FFFFFF" points="66.887,28.779 73.062,28.779 76.516,25.328 76.516,11.339 79.148,11.339 79.148,7.796 
		66.887,7.796 66.887,11.339 69.521,11.339 69.521,25.328 66.887,25.328 	"/>
	<polygon fill="#FFFFFF" points="79.33,32.049 87.051,24.419 90.503,24.419 90.503,20.968 77.423,20.968 77.423,24.419 
		78.693,24.419 73.426,29.688 66.068,29.688 66.068,24.419 68.703,24.419 68.703,20.968 56.439,20.968 56.439,24.419 59.075,24.419 
		59.075,40.133 56.439,40.133 56.439,43.676 68.703,43.676 68.703,40.133 66.068,40.133 66.068,34.955 73.426,34.955 78.693,40.133 
		77.423,40.133 77.423,43.676 90.503,43.676 90.503,40.133 87.505,40.133 	"/>
	<path fill="#FFFFFF" d="M88.323,38.406l-6.359-6.359l5.903-5.902h4.359V19.15H78.241v-6.085h2.634V6.07H65.161l0,0v6.994l0,0h2.634
		v6.085H57.259v-6.085h2.634l0,0V6.07l0,0H44.178v6.994h2.635v13.081l0,0l0,0l4.359,4.36h6.087v7.901h-2.635V45.4h15.714v-6.994
		h-2.634V36.68h4.905l3.088,3.088V45.4H92.32v-6.994l0,0H88.323L88.323,38.406z M91.412,44.583H76.516v-5.267l0,0l-3.543-3.543
		h-6.086v3.543h2.635v5.267H55.533v-5.267h2.633v-9.629h-6.54l-3.906-3.906V12.158l0,0h-2.633V6.979h13.987v5.269h-2.635v7.902
		h12.263v-7.902h-2.634V6.979h13.988v5.269h-2.636v7.902H91.41v5.269h-3.907l-6.812,6.812l7.176,7.178h3.543L91.412,44.583
		L91.412,44.583z"/>
</g>
<path fill="#FFFFFF" d="M41.916,17.054c0.209-0.022,3.428,1.509,3.675,1.694C45.531,19,38.176,37.639,32.812,40.594
	c-3.622,1.995-6-2.468-4.375-4.344c0.614-0.709,1.821-0.986,2.688-0.438c0.938,0.594,1.406,2.125,1.188,3.312
	c1.769-0.333,4.498-5.021,4.435-5.583c-0.463-4.167-3.705-12.482-4.591-13.167c-0.688-0.531-2.286,0.377-2.656,0.312
	c-0.005-0.685,2.125-3.625,4.521-3.26c3.307,0.503,4.335,8.536,4.885,12.26C39.562,29,41.781,17.219,41.916,17.054z"/>
<path fill="#FFFFFF" d="M12.062,17.281c0.188,0.125-0.431,2.905-0.438,3c1.365-1.194,4.77-3.66,7.009-2.654
	c1.583,0.709,1.206,2.727,1.222,2.792c1.978-1.127,5.343-4.2,7.534-2.65c3.187,2.254-0.573,9.771-0.143,13.062
	c0.407,0.894,2.785,0.574,3.215,0.774c-0.024,0.36-5.087,3.205-6.706,1.486c-1.787-1.896,2.744-11.248,0.65-12.675
	c-0.579-0.394-3.267,0.218-4.55,0.976c-0.494,4.056-0.818,7.957-1.625,11.699c-0.034-0.021-3.588-0.021-3.575,0
	c0.525-3.058,2.801-11.458,1.3-12.675c-0.861-0.697-3.208,0.276-4.549,0.976c0.006-0.037-1.683,11.647-1.73,11.699
	c-1.084,0-2.387,0-3.47,0c-0.046-0.062,1.853-10.864,1.95-11.624c0.175-1.36-2.344-2.094-2.384-2.435
	C5.844,18.844,11.875,17.156,12.062,17.281z"/>
<path fill="#FFFFFF" d="M96.003,43.866c0.19,0,0.357,0.016,0.357,0.215c0,0.215-0.293,0.18-0.508,0.18h-0.243v-0.395H96.003
	L96.003,43.866z M96.169,44.489c0.21-0.008,0.421-0.123,0.421-0.433c0-0.332-0.258-0.419-0.544-0.419h-0.664v1.58h0.229v-0.729
	h0.292l0.404,0.729h0.261L96.169,44.489L96.169,44.489z M95.924,45.822c0.788,0,1.409-0.621,1.409-1.404s-0.621-1.404-1.409-1.404
	c-0.787,0-1.408,0.621-1.408,1.404S95.137,45.822,95.924,45.822L95.924,45.822z M95.924,43.24c0.645,0,1.18,0.514,1.18,1.178
	c0,0.661-0.535,1.177-1.18,1.177c-0.643,0-1.18-0.516-1.18-1.177C94.744,43.754,95.281,43.24,95.924,43.24L95.924,43.24z"/>
</svg>
